<?xml version="1.0" standalone="no"?>
<!DOCTYPE svg PUBLIC "-//W3C//DTD SVG 20010904//EN"
 "http://www.w3.org/TR/2001/REC-SVG-20010904/DTD/svg10.dtd">
<svg version="1.0" xmlns="http://www.w3.org/2000/svg"
 width="229.000000pt" height="95.000000pt" viewBox="0 0 229.000000 95.000000"
 preserveAspectRatio="xMidYMid meet">
<metadata>
Created by potrace 1.15, written by Peter Selinger 2001-2017
</metadata>
<g transform="translate(0.000000,95.000000) scale(0.100000,-0.100000)"
fill="#000000" stroke="none">
<path d="M1541 780 c-20 -5 -53 -27 -79 -53 -38 -38 -45 -52 -49 -94 -9 -87
24 -124 142 -162 52 -17 81 -53 69 -85 -9 -24 -100 -21 -143 5 -18 11 -34 19
-35 17 -2 -2 -14 -24 -29 -51 l-26 -47 39 -20 c95 -48 199 -46 268 7 85 64 82
212 -5 256 -15 8 -47 20 -71 26 -56 16 -86 45 -72 70 14 27 54 34 96 16 20 -8
38 -15 39 -15 4 0 40 62 48 82 5 13 -4 20 -41 32 -66 20 -111 25 -151 16z"/>
<path d="M2005 781 c-76 -20 -157 -86 -196 -162 -46 -90 -16 -227 63 -294 73
-62 194 -87 271 -57 26 11 27 14 27 89 -1 57 -3 73 -11 61 -13 -24 -83 -41
-130 -33 -88 15 -133 114 -91 200 36 75 134 97 204 45 l28 -21 0 76 c0 70 -2
76 -23 84 -38 15 -109 20 -142 12z"/>
<path d="M167 763 c-4 -3 -7 -116 -7 -250 0 -209 2 -243 15 -243 13 0 15 20
15 120 l0 120 56 0 c100 0 154 45 154 130 0 88 -51 130 -157 130 -38 0 -73 -3
-76 -7z m174 -52 c39 -40 41 -109 4 -146 -21 -22 -33 -25 -90 -25 l-65 0 0
100 0 100 61 0 c54 0 64 -3 90 -29z"/>
<path d="M530 766 c0 -2 -179 -442 -197 -483 -3 -7 2 -13 10 -13 9 0 27 30 47
79 l32 80 76 3 c150 6 146 8 184 -82 18 -44 39 -80 46 -80 6 0 12 3 12 8 0 16
-195 492 -202 492 -5 0 -8 -2 -8 -4z m63 -193 l45 -113 -86 0 c-48 0 -92 4
-98 8 -9 5 1 41 33 120 25 62 49 110 53 105 5 -4 29 -59 53 -120z"/>
<path d="M660 758 c0 -7 32 -119 70 -248 39 -129 70 -236 70 -237 0 -2 30 -3
68 -3 l67 0 44 133 c24 72 47 136 52 141 4 5 20 -31 34 -80 15 -49 34 -113 43
-141 l16 -53 67 0 68 0 9 33 c6 17 40 125 76 238 36 113 66 211 66 218 0 7
-22 11 -60 11 -46 0 -61 -4 -68 -17 -13 -24 -82 -268 -82 -288 0 -46 -21 2
-65 145 l-48 161 -51 -3 -51 -3 -52 -155 c-29 -85 -53 -157 -54 -160 -1 -7
-22 65 -59 203 l-32 117 -64 0 c-45 0 -64 -4 -64 -12z"/>
</g>
</svg>
